<svg xmlns="http://www.w3.org/2000/svg" viewBox="0 0 720 900" role="img" aria-labelledby="title desc">
  <title id="title">First laugh memory</title>
  <desc id="desc">Two cute laughing characters surrounded by playful hearts.</desc>
  <defs>
    <linearGradient id="bg" x1="0" x2="1" y1="0" y2="1">
      <stop offset="0" stop-color="#fff1f7"/>
      <stop offset=".52" stop-color="#ffd0e3"/>
      <stop offset="1" stop-color="#c9a7ff"/>
    </linearGradient>
  </defs>
  <rect width="720" height="900" fill="url(#bg)"/>
  <g opacity=".78">
    <path fill="#ff78aa" d="M116 240s-54-32-54-74c0-22 16-38 37-38 10 0 18 5 21 14 2-9 10-14 20-14 21 0 37 16 37 38 0 42-61 74-61 74z"/>
    <path fill="#7c4dff" d="M594 270s-48-29-48-66c0-19 14-34 33-34 9 0 16 5 18 13 3-8 10-13 19-13 19 0 33 15 33 34 0 37-55 66-55 66z"/>
  </g>
  <circle cx="270" cy="500" r="142" fill="#8b4e32"/>
  <circle cx="450" cy="500" r="142" fill="#2f1832"/>
  <circle cx="270" cy="524" r="114" fill="#ffd0b3"/>
  <circle cx="450" cy="524" r="114" fill="#f0b493"/>
  <path fill="#8b4e32" d="M158 484c24-88 80-138 158-120 40 9 74 37 93 78-88-16-154 1-251 42z"/>
  <path fill="#2f1832" d="M350 446c36-86 130-104 196-45 28 25 43 61 48 100-75-39-151-56-244-55z"/>
  <g fill="#3a1530">
    <path d="M222 510c20-24 45-24 65 0" fill="none" stroke="#3a1530" stroke-width="10" stroke-linecap="round"/>
    <path d="M408 510c20-24 45-24 65 0" fill="none" stroke="#3a1530" stroke-width="10" stroke-linecap="round"/>
    <path d="M228 568c34 44 79 44 113 0" fill="none" stroke="#3a1530" stroke-width="12" stroke-linecap="round"/>
    <path d="M398 568c34 44 79 44 113 0" fill="none" stroke="#3a1530" stroke-width="12" stroke-linecap="round"/>
  </g>
  <path fill="#f3c969" d="M360 764l18 39 39 18-39 18-18 39-18-39-39-18 39-18z"/>
  <text x="360" y="174" fill="#3a1530" font-family="Segoe UI, Arial, sans-serif" font-size="50" font-weight="800" text-anchor="middle">hahaha</text>
</svg>
